<svg xmlns="http://www.w3.org/2000/svg" xmlns:xlink="http://www.w3.org/1999/xlink" width="500" zoomAndPan="magnify" viewBox="0 0 375 374.999991" height="500" preserveAspectRatio="xMidYMid meet" version="1.0"><defs><clipPath id="abf4ac4e1f"><path d="M 37.5 37.5 L 337.5 37.5 L 337.5 337.5 L 37.5 337.5 Z M 37.5 37.5 " clip-rule="nonzero"/></clipPath><clipPath id="5d092c4a4e"><path d="M 187.5 37.5 C 104.65625 37.5 37.5 104.65625 37.5 187.5 C 37.5 270.34375 104.65625 337.5 187.5 337.5 C 270.34375 337.5 337.5 270.34375 337.5 187.5 C 337.5 104.65625 270.34375 37.5 187.5 37.5 Z M 187.5 37.5 " clip-rule="nonzero"/></clipPath><clipPath id="d3e695f23d"><path d="M 0.5 0.5 L 300.5 0.5 L 300.5 300.5 L 0.5 300.5 Z M 0.5 0.5 " clip-rule="nonzero"/></clipPath><clipPath id="a061b68e3c"><path d="M 150.5 0.5 C 67.65625 0.5 0.5 67.65625 0.5 150.5 C 0.5 233.34375 67.65625 300.5 150.5 300.5 C 233.34375 300.5 300.5 233.34375 300.5 150.5 C 300.5 67.65625 233.34375 0.5 150.5 0.5 Z M 150.5 0.5 " clip-rule="nonzero"/></clipPath><radialGradient gradientTransform="matrix(1, 0, 0, 1, 0.500002, 0.499998)" gradientUnits="userSpaceOnUse" r="212.131627" cx="149.99999" id="21fca91739" cy="149.99999" fx="149.99999" fy="149.99999"><stop stop-opacity="1" stop-color="rgb(100%, 77.648926%, 52.445984%)" offset="0"/><stop stop-opacity="1" stop-color="rgb(100%, 77.650452%, 52.241516%)" offset="0.00390625"/><stop stop-opacity="1" stop-color="rgb(100%, 77.651978%, 52.035522%)" offset="0.0078125"/><stop stop-opacity="1" stop-color="rgb(100%, 77.653503%, 51.831055%)" offset="0.0117188"/><stop stop-opacity="1" stop-color="rgb(100%, 77.655029%, 51.625061%)" offset="0.015625"/><stop stop-opacity="1" stop-color="rgb(100%, 77.656555%, 51.420593%)" offset="0.0195312"/><stop stop-opacity="1" stop-color="rgb(100%, 77.658081%, 51.2146%)" offset="0.0234375"/><stop stop-opacity="1" stop-color="rgb(100%, 77.659607%, 51.008606%)" offset="0.0273438"/><stop stop-opacity="1" stop-color="rgb(100%, 77.661133%, 50.804138%)" offset="0.03125"/><stop stop-opacity="1" stop-color="rgb(100%, 77.662659%, 50.598145%)" offset="0.0351562"/><stop stop-opacity="1" stop-color="rgb(100%, 77.664185%, 50.393677%)" offset="0.0390625"/><stop stop-opacity="1" stop-color="rgb(100%, 77.66571%, 50.187683%)" offset="0.0429688"/><stop stop-opacity="1" stop-color="rgb(100%, 77.667236%, 49.983215%)" offset="0.046875"/><stop stop-opacity="1" stop-color="rgb(100%, 77.668762%, 49.777222%)" offset="0.0507812"/><stop stop-opacity="1" stop-color="rgb(100%, 77.670288%, 49.572754%)" offset="0.0546875"/><stop stop-opacity="1" stop-color="rgb(100%, 77.671814%, 49.36676%)" offset="0.0585938"/><stop stop-opacity="1" stop-color="rgb(100%, 77.67334%, 49.162292%)" offset="0.0625"/><stop stop-opacity="1" stop-color="rgb(100%, 77.674866%, 48.956299%)" offset="0.0664062"/><stop stop-opacity="1" stop-color="rgb(100%, 77.676392%, 48.751831%)" offset="0.0703125"/><stop stop-opacity="1" stop-color="rgb(100%, 77.677917%, 48.545837%)" offset="0.0742188"/><stop stop-opacity="1" stop-color="rgb(100%, 77.679443%, 48.34137%)" offset="0.078125"/><stop stop-opacity="1" stop-color="rgb(100%, 77.680969%, 48.135376%)" offset="0.0820312"/><stop stop-opacity="1" stop-color="rgb(100%, 77.682495%, 47.930908%)" offset="0.0859375"/><stop stop-opacity="1" stop-color="rgb(100%, 77.684021%, 47.724915%)" offset="0.0898438"/><stop stop-opacity="1" stop-color="rgb(100%, 77.685547%, 47.518921%)" offset="0.09375"/><stop stop-opacity="1" stop-color="rgb(100%, 77.687073%, 47.314453%)" offset="0.0976562"/><stop stop-opacity="1" stop-color="rgb(100%, 77.688599%, 47.108459%)" offset="0.101562"/><stop stop-opacity="1" stop-color="rgb(100%, 77.690125%, 46.903992%)" offset="0.105469"/><stop stop-opacity="1" stop-color="rgb(100%, 77.69165%, 46.697998%)" offset="0.109375"/><stop stop-opacity="1" stop-color="rgb(100%, 77.693176%, 46.49353%)" offset="0.113281"/><stop stop-opacity="1" stop-color="rgb(100%, 77.694702%, 46.287537%)" offset="0.117188"/><stop stop-opacity="1" stop-color="rgb(100%, 77.696228%, 46.083069%)" offset="0.121094"/><stop stop-opacity="1" stop-color="rgb(100%, 77.697754%, 45.877075%)" offset="0.125"/><stop stop-opacity="1" stop-color="rgb(100%, 77.69928%, 45.672607%)" offset="0.128906"/><stop stop-opacity="1" stop-color="rgb(100%, 77.700806%, 45.466614%)" offset="0.132812"/><stop stop-opacity="1" stop-color="rgb(100%, 77.702332%, 45.262146%)" offset="0.136719"/><stop stop-opacity="1" stop-color="rgb(100%, 77.703857%, 45.056152%)" offset="0.140625"/><stop stop-opacity="1" stop-color="rgb(100%, 77.705383%, 44.851685%)" offset="0.144531"/><stop stop-opacity="1" stop-color="rgb(100%, 77.706909%, 44.645691%)" offset="0.148438"/><stop stop-opacity="1" stop-color="rgb(100%, 77.708435%, 44.441223%)" offset="0.152344"/><stop stop-opacity="1" stop-color="rgb(100%, 77.709961%, 44.235229%)" offset="0.15625"/><stop stop-opacity="1" stop-color="rgb(100%, 77.711487%, 44.029236%)" offset="0.160156"/><stop stop-opacity="1" stop-color="rgb(100%, 77.713013%, 43.824768%)" offset="0.164062"/><stop stop-opacity="1" stop-color="rgb(100%, 77.714539%, 43.618774%)" offset="0.167969"/><stop stop-opacity="1" stop-color="rgb(100%, 77.716064%, 43.414307%)" offset="0.171875"/><stop stop-opacity="1" stop-color="rgb(100%, 77.71759%, 43.208313%)" offset="0.175781"/><stop stop-opacity="1" stop-color="rgb(100%, 77.719116%, 43.003845%)" offset="0.179688"/><stop stop-opacity="1" stop-color="rgb(100%, 77.720642%, 42.797852%)" offset="0.183594"/><stop stop-opacity="1" stop-color="rgb(100%, 77.722168%, 42.593384%)" offset="0.1875"/><stop stop-opacity="1" stop-color="rgb(100%, 77.723694%, 42.38739%)" offset="0.191406"/><stop stop-opacity="1" stop-color="rgb(100%, 77.72522%, 42.182922%)" offset="0.195312"/><stop stop-opacity="1" stop-color="rgb(100%, 77.726746%, 41.976929%)" offset="0.199219"/><stop stop-opacity="1" stop-color="rgb(100%, 77.728271%, 41.772461%)" offset="0.203125"/><stop stop-opacity="1" stop-color="rgb(100%, 77.729797%, 41.566467%)" offset="0.207031"/><stop stop-opacity="1" stop-color="rgb(100%, 77.731323%, 41.362%)" offset="0.210938"/><stop stop-opacity="1" stop-color="rgb(100%, 77.732849%, 41.156006%)" offset="0.214844"/><stop stop-opacity="1" stop-color="rgb(100%, 77.734375%, 40.951538%)" offset="0.21875"/><stop stop-opacity="1" stop-color="rgb(100%, 77.735901%, 40.745544%)" offset="0.222656"/><stop stop-opacity="1" stop-color="rgb(100%, 77.737427%, 40.541077%)" offset="0.226562"/><stop stop-opacity="1" stop-color="rgb(100%, 77.738953%, 40.335083%)" offset="0.230469"/><stop stop-opacity="1" stop-color="rgb(100%, 77.740479%, 40.129089%)" offset="0.234375"/><stop stop-opacity="1" stop-color="rgb(100%, 77.742004%, 39.924622%)" offset="0.238281"/><stop stop-opacity="1" stop-color="rgb(100%, 77.74353%, 39.718628%)" offset="0.242188"/><stop stop-opacity="1" stop-color="rgb(100%, 77.745056%, 39.51416%)" offset="0.246094"/><stop stop-opacity="1" stop-color="rgb(100%, 77.746582%, 39.308167%)" offset="0.25"/><stop stop-opacity="1" stop-color="rgb(100%, 77.748108%, 39.103699%)" offset="0.253906"/><stop stop-opacity="1" stop-color="rgb(100%, 77.749634%, 38.897705%)" offset="0.257812"/><stop stop-opacity="1" stop-color="rgb(100%, 77.75116%, 38.693237%)" offset="0.261719"/><stop stop-opacity="1" stop-color="rgb(100%, 77.752686%, 38.487244%)" offset="0.265625"/><stop stop-opacity="1" stop-color="rgb(100%, 77.754211%, 38.282776%)" offset="0.269531"/><stop stop-opacity="1" stop-color="rgb(100%, 77.755737%, 38.076782%)" offset="0.273438"/><stop stop-opacity="1" stop-color="rgb(100%, 77.757263%, 37.872314%)" offset="0.277344"/><stop stop-opacity="1" stop-color="rgb(100%, 77.758789%, 37.666321%)" offset="0.28125"/><stop stop-opacity="1" stop-color="rgb(100%, 77.760315%, 37.461853%)" offset="0.285156"/><stop stop-opacity="1" stop-color="rgb(100%, 77.761841%, 37.255859%)" offset="0.289062"/><stop stop-opacity="1" stop-color="rgb(100%, 77.763367%, 37.051392%)" offset="0.292969"/><stop stop-opacity="1" stop-color="rgb(100%, 77.764893%, 36.845398%)" offset="0.296875"/><stop stop-opacity="1" stop-color="rgb(100%, 77.766418%, 36.639404%)" offset="0.300781"/><stop stop-opacity="1" stop-color="rgb(100%, 77.767944%, 36.434937%)" offset="0.304688"/><stop stop-opacity="1" stop-color="rgb(100%, 77.76947%, 36.228943%)" offset="0.308594"/><stop stop-opacity="1" stop-color="rgb(100%, 77.770996%, 36.024475%)" offset="0.3125"/><stop stop-opacity="1" stop-color="rgb(100%, 77.772522%, 35.818481%)" offset="0.316406"/><stop stop-opacity="1" stop-color="rgb(100%, 77.774048%, 35.614014%)" offset="0.320312"/><stop stop-opacity="1" stop-color="rgb(100%, 77.775574%, 35.40802%)" offset="0.324219"/><stop stop-opacity="1" stop-color="rgb(100%, 77.7771%, 35.203552%)" offset="0.328125"/><stop stop-opacity="1" stop-color="rgb(100%, 77.778625%, 34.997559%)" offset="0.332031"/><stop stop-opacity="1" stop-color="rgb(100%, 77.780151%, 34.793091%)" offset="0.335938"/><stop stop-opacity="1" stop-color="rgb(100%, 77.781677%, 34.587097%)" offset="0.339844"/><stop stop-opacity="1" stop-color="rgb(100%, 77.783203%, 34.382629%)" offset="0.34375"/><stop stop-opacity="1" stop-color="rgb(100%, 77.784729%, 34.176636%)" offset="0.347656"/><stop stop-opacity="1" stop-color="rgb(100%, 77.786255%, 33.972168%)" offset="0.351562"/><stop stop-opacity="1" stop-color="rgb(100%, 77.787781%, 33.766174%)" offset="0.355469"/><stop stop-opacity="1" stop-color="rgb(100%, 77.789307%, 33.561707%)" offset="0.359375"/><stop stop-opacity="1" stop-color="rgb(100%, 77.790833%, 33.355713%)" offset="0.363281"/><stop stop-opacity="1" stop-color="rgb(100%, 77.792358%, 33.151245%)" offset="0.367188"/><stop stop-opacity="1" stop-color="rgb(100%, 77.793884%, 32.945251%)" offset="0.371094"/><stop stop-opacity="1" stop-color="rgb(100%, 77.79541%, 32.739258%)" offset="0.375"/><stop stop-opacity="1" stop-color="rgb(100%, 77.796936%, 32.53479%)" offset="0.378906"/><stop stop-opacity="1" stop-color="rgb(100%, 77.798462%, 32.328796%)" offset="0.382812"/><stop stop-opacity="1" stop-color="rgb(100%, 77.799988%, 32.124329%)" offset="0.386719"/><stop stop-opacity="1" stop-color="rgb(100%, 77.801514%, 31.918335%)" offset="0.390625"/><stop stop-opacity="1" stop-color="rgb(100%, 77.80304%, 31.713867%)" offset="0.394531"/><stop stop-opacity="1" stop-color="rgb(100%, 77.804565%, 31.507874%)" offset="0.398438"/><stop stop-opacity="1" stop-color="rgb(100%, 77.806091%, 31.303406%)" offset="0.402344"/><stop stop-opacity="1" stop-color="rgb(100%, 77.807617%, 31.097412%)" offset="0.40625"/><stop stop-opacity="1" stop-color="rgb(100%, 77.809143%, 30.892944%)" offset="0.410156"/><stop stop-opacity="1" stop-color="rgb(100%, 77.810669%, 30.686951%)" offset="0.414062"/><stop stop-opacity="1" stop-color="rgb(100%, 77.812195%, 30.482483%)" offset="0.417969"/><stop stop-opacity="1" stop-color="rgb(100%, 77.813721%, 30.276489%)" offset="0.421875"/><stop stop-opacity="1" stop-color="rgb(100%, 77.815247%, 30.072021%)" offset="0.425781"/><stop stop-opacity="1" stop-color="rgb(100%, 77.816772%, 29.866028%)" offset="0.429688"/><stop stop-opacity="1" stop-color="rgb(100%, 77.818298%, 29.66156%)" offset="0.433594"/><stop stop-opacity="1" stop-color="rgb(100%, 77.819824%, 29.455566%)" offset="0.4375"/><stop stop-opacity="1" stop-color="rgb(100%, 77.82135%, 29.249573%)" offset="0.441406"/><stop stop-opacity="1" stop-color="rgb(100%, 77.822876%, 29.045105%)" offset="0.445312"/><stop stop-opacity="1" stop-color="rgb(100%, 77.824402%, 28.839111%)" offset="0.449219"/><stop stop-opacity="1" stop-color="rgb(100%, 77.825928%, 28.634644%)" offset="0.453125"/><stop stop-opacity="1" stop-color="rgb(100%, 77.827454%, 28.42865%)" offset="0.457031"/><stop stop-opacity="1" stop-color="rgb(100%, 77.828979%, 28.224182%)" offset="0.460938"/><stop stop-opacity="1" stop-color="rgb(100%, 77.830505%, 28.018188%)" offset="0.464844"/><stop stop-opacity="1" stop-color="rgb(100%, 77.832031%, 27.813721%)" offset="0.46875"/><stop stop-opacity="1" stop-color="rgb(100%, 77.833557%, 27.607727%)" offset="0.472656"/><stop stop-opacity="1" stop-color="rgb(100%, 77.835083%, 27.403259%)" offset="0.476562"/><stop stop-opacity="1" stop-color="rgb(100%, 77.836609%, 27.197266%)" offset="0.480469"/><stop stop-opacity="1" stop-color="rgb(100%, 77.838135%, 26.992798%)" offset="0.484375"/><stop stop-opacity="1" stop-color="rgb(100%, 77.839661%, 26.786804%)" offset="0.488281"/><stop stop-opacity="1" stop-color="rgb(100%, 77.841187%, 26.582336%)" offset="0.492188"/><stop stop-opacity="1" stop-color="rgb(100%, 77.842712%, 26.376343%)" offset="0.496094"/><stop stop-opacity="1" stop-color="rgb(100%, 77.844238%, 26.171875%)" offset="0.5"/><stop stop-opacity="1" stop-color="rgb(100%, 77.845764%, 25.965881%)" offset="0.503906"/><stop stop-opacity="1" stop-color="rgb(100%, 77.84729%, 25.761414%)" offset="0.507812"/><stop stop-opacity="1" stop-color="rgb(100%, 77.848816%, 25.55542%)" offset="0.511719"/><stop stop-opacity="1" stop-color="rgb(100%, 77.850342%, 25.349426%)" offset="0.515625"/><stop stop-opacity="1" stop-color="rgb(100%, 77.851868%, 25.144958%)" offset="0.519531"/><stop stop-opacity="1" stop-color="rgb(100%, 77.853394%, 24.938965%)" offset="0.523438"/><stop stop-opacity="1" stop-color="rgb(100%, 77.854919%, 24.734497%)" offset="0.527344"/><stop stop-opacity="1" stop-color="rgb(100%, 77.856445%, 24.528503%)" offset="0.53125"/><stop stop-opacity="1" stop-color="rgb(100%, 77.857971%, 24.324036%)" offset="0.535156"/><stop stop-opacity="1" stop-color="rgb(100%, 77.859497%, 24.118042%)" offset="0.539062"/><stop stop-opacity="1" stop-color="rgb(100%, 77.861023%, 23.913574%)" offset="0.542969"/><stop stop-opacity="1" stop-color="rgb(100%, 77.862549%, 23.707581%)" offset="0.546875"/><stop stop-opacity="1" stop-color="rgb(100%, 77.864075%, 23.503113%)" offset="0.550781"/><stop stop-opacity="1" stop-color="rgb(100%, 77.865601%, 23.297119%)" offset="0.554688"/><stop stop-opacity="1" stop-color="rgb(100%, 77.867126%, 23.092651%)" offset="0.558594"/><stop stop-opacity="1" stop-color="rgb(100%, 77.868652%, 22.886658%)" offset="0.5625"/><stop stop-opacity="1" stop-color="rgb(100%, 77.870178%, 22.68219%)" offset="0.566406"/><stop stop-opacity="1" stop-color="rgb(100%, 77.871704%, 22.476196%)" offset="0.570312"/><stop stop-opacity="1" stop-color="rgb(100%, 77.87323%, 22.271729%)" offset="0.574219"/><stop stop-opacity="1" stop-color="rgb(100%, 77.874756%, 22.065735%)" offset="0.578125"/><stop stop-opacity="1" stop-color="rgb(100%, 77.876282%, 21.859741%)" offset="0.582031"/><stop stop-opacity="1" stop-color="rgb(100%, 77.877808%, 21.655273%)" offset="0.585938"/><stop stop-opacity="1" stop-color="rgb(100%, 77.879333%, 21.44928%)" offset="0.589844"/><stop stop-opacity="1" stop-color="rgb(100%, 77.880859%, 21.244812%)" offset="0.59375"/><stop stop-opacity="1" stop-color="rgb(100%, 77.882385%, 21.038818%)" offset="0.597656"/><stop stop-opacity="1" stop-color="rgb(100%, 77.883911%, 20.834351%)" offset="0.601562"/><stop stop-opacity="1" stop-color="rgb(100%, 77.885437%, 20.628357%)" offset="0.605469"/><stop stop-opacity="1" stop-color="rgb(100%, 77.886963%, 20.423889%)" offset="0.609375"/><stop stop-opacity="1" stop-color="rgb(100%, 77.888489%, 20.217896%)" offset="0.613281"/><stop stop-opacity="1" stop-color="rgb(100%, 77.890015%, 20.013428%)" offset="0.617188"/><stop stop-opacity="1" stop-color="rgb(100%, 77.891541%, 19.807434%)" offset="0.621094"/><stop stop-opacity="1" stop-color="rgb(100%, 77.893066%, 19.602966%)" offset="0.625"/><stop stop-opacity="1" stop-color="rgb(100%, 77.894592%, 19.396973%)" offset="0.628906"/><stop stop-opacity="1" stop-color="rgb(100%, 77.896118%, 19.192505%)" offset="0.632812"/><stop stop-opacity="1" stop-color="rgb(100%, 77.897644%, 18.986511%)" offset="0.636719"/><stop stop-opacity="1" stop-color="rgb(100%, 77.89917%, 18.782043%)" offset="0.640625"/><stop stop-opacity="1" stop-color="rgb(100%, 77.900696%, 18.57605%)" offset="0.644531"/><stop stop-opacity="1" stop-color="rgb(100%, 77.902222%, 18.370056%)" offset="0.648438"/><stop stop-opacity="1" stop-color="rgb(100%, 77.903748%, 18.165588%)" offset="0.652344"/><stop stop-opacity="1" stop-color="rgb(100%, 77.905273%, 17.959595%)" offset="0.65625"/><stop stop-opacity="1" stop-color="rgb(100%, 77.906799%, 17.755127%)" offset="0.660156"/><stop stop-opacity="1" stop-color="rgb(100%, 77.908325%, 17.549133%)" offset="0.664062"/><stop stop-opacity="1" stop-color="rgb(100%, 77.909851%, 17.344666%)" offset="0.667969"/><stop stop-opacity="1" stop-color="rgb(100%, 77.911377%, 17.138672%)" offset="0.671875"/><stop stop-opacity="1" stop-color="rgb(100%, 77.912903%, 16.934204%)" offset="0.675781"/><stop stop-opacity="1" stop-color="rgb(100%, 77.914429%, 16.72821%)" offset="0.679688"/><stop stop-opacity="1" stop-color="rgb(100%, 77.915955%, 16.523743%)" offset="0.683594"/><stop stop-opacity="1" stop-color="rgb(100%, 77.91748%, 16.317749%)" offset="0.6875"/><stop stop-opacity="1" stop-color="rgb(100%, 77.919006%, 16.113281%)" offset="0.691406"/><stop stop-opacity="1" stop-color="rgb(100%, 77.920532%, 15.907288%)" offset="0.695312"/><stop stop-opacity="1" stop-color="rgb(100%, 77.922058%, 15.70282%)" offset="0.699219"/><stop stop-opacity="1" stop-color="rgb(100%, 77.923584%, 15.496826%)" offset="0.703125"/><stop stop-opacity="1" stop-color="rgb(100%, 77.92511%, 15.292358%)" offset="0.707031"/><stop stop-opacity="1" stop-color="rgb(100%, 77.926636%, 15.086365%)" offset="0.710938"/><stop stop-opacity="1" stop-color="rgb(100%, 77.928162%, 14.881897%)" offset="0.714844"/><stop stop-opacity="1" stop-color="rgb(100%, 77.929688%, 14.675903%)" offset="0.71875"/><stop stop-opacity="1" stop-color="rgb(100%, 77.931213%, 14.46991%)" offset="0.722656"/><stop stop-opacity="1" stop-color="rgb(100%, 77.932739%, 14.265442%)" offset="0.726562"/><stop stop-opacity="1" stop-color="rgb(100%, 77.934265%, 14.059448%)" offset="0.730469"/><stop stop-opacity="1" stop-color="rgb(100%, 77.935791%, 13.85498%)" offset="0.734375"/><stop stop-opacity="1" stop-color="rgb(100%, 77.937317%, 13.648987%)" offset="0.738281"/><stop stop-opacity="1" stop-color="rgb(100%, 77.938843%, 13.444519%)" offset="0.742188"/><stop stop-opacity="1" stop-color="rgb(100%, 77.940369%, 13.238525%)" offset="0.746094"/><stop stop-opacity="1" stop-color="rgb(100%, 77.941895%, 13.034058%)" offset="0.75"/><stop stop-opacity="1" stop-color="rgb(100%, 77.94342%, 12.828064%)" offset="0.753906"/><stop stop-opacity="1" stop-color="rgb(100%, 77.944946%, 12.623596%)" offset="0.757812"/><stop stop-opacity="1" stop-color="rgb(100%, 77.946472%, 12.417603%)" offset="0.761719"/><stop stop-opacity="1" stop-color="rgb(100%, 77.947998%, 12.213135%)" offset="0.765625"/><stop stop-opacity="1" stop-color="rgb(100%, 77.949524%, 12.007141%)" offset="0.769531"/><stop stop-opacity="1" stop-color="rgb(100%, 77.95105%, 11.802673%)" offset="0.773438"/><stop stop-opacity="1" stop-color="rgb(100%, 77.952576%, 11.59668%)" offset="0.777344"/><stop stop-opacity="1" stop-color="rgb(100%, 77.954102%, 11.392212%)" offset="0.78125"/><stop stop-opacity="1" stop-color="rgb(100%, 77.955627%, 11.186218%)" offset="0.785156"/><stop stop-opacity="1" stop-color="rgb(100%, 77.957153%, 10.980225%)" offset="0.789062"/><stop stop-opacity="1" stop-color="rgb(100%, 77.958679%, 10.775757%)" offset="0.792969"/><stop stop-opacity="1" stop-color="rgb(100%, 77.960205%, 10.569763%)" offset="0.796875"/><stop stop-opacity="1" stop-color="rgb(100%, 77.961731%, 10.365295%)" offset="0.800781"/><stop stop-opacity="1" stop-color="rgb(100%, 77.963257%, 10.159302%)" offset="0.804688"/><stop stop-opacity="1" stop-color="rgb(100%, 77.964783%, 9.954834%)" offset="0.808594"/><stop stop-opacity="1" stop-color="rgb(100%, 77.966309%, 9.74884%)" offset="0.8125"/><stop stop-opacity="1" stop-color="rgb(100%, 77.967834%, 9.544373%)" offset="0.816406"/><stop stop-opacity="1" stop-color="rgb(100%, 77.96936%, 9.338379%)" offset="0.820312"/><stop stop-opacity="1" stop-color="rgb(100%, 77.970886%, 9.133911%)" offset="0.824219"/><stop stop-opacity="1" stop-color="rgb(100%, 77.972412%, 8.927917%)" offset="0.828125"/><stop stop-opacity="1" stop-color="rgb(100%, 77.973938%, 8.72345%)" offset="0.832031"/><stop stop-opacity="1" stop-color="rgb(100%, 77.975464%, 8.517456%)" offset="0.835938"/><stop stop-opacity="1" stop-color="rgb(100%, 77.97699%, 8.312988%)" offset="0.839844"/><stop stop-opacity="1" stop-color="rgb(100%, 77.978516%, 8.106995%)" offset="0.84375"/><stop stop-opacity="1" stop-color="rgb(100%, 77.980042%, 7.902527%)" offset="0.847656"/><stop stop-opacity="1" stop-color="rgb(100%, 77.981567%, 7.696533%)" offset="0.851562"/><stop stop-opacity="1" stop-color="rgb(100%, 77.983093%, 7.492065%)" offset="0.855469"/><stop stop-opacity="1" stop-color="rgb(100%, 77.984619%, 7.286072%)" offset="0.859375"/><stop stop-opacity="1" stop-color="rgb(100%, 77.986145%, 7.080078%)" offset="0.863281"/><stop stop-opacity="1" stop-color="rgb(100%, 77.987671%, 6.87561%)" offset="0.867188"/><stop stop-opacity="1" stop-color="rgb(100%, 77.989197%, 6.669617%)" offset="0.871094"/><stop stop-opacity="1" stop-color="rgb(100%, 77.990723%, 6.465149%)" offset="0.875"/><stop stop-opacity="1" stop-color="rgb(100%, 77.992249%, 6.259155%)" offset="0.878906"/><stop stop-opacity="1" stop-color="rgb(100%, 77.993774%, 6.054688%)" offset="0.882812"/><stop stop-opacity="1" stop-color="rgb(100%, 77.9953%, 5.848694%)" offset="0.886719"/><stop stop-opacity="1" stop-color="rgb(100%, 77.996826%, 5.644226%)" offset="0.890625"/><stop stop-opacity="1" stop-color="rgb(100%, 77.998352%, 5.438232%)" offset="0.894531"/><stop stop-opacity="1" stop-color="rgb(100%, 77.999878%, 5.233765%)" offset="0.898438"/><stop stop-opacity="1" stop-color="rgb(100%, 78.001404%, 5.027771%)" offset="0.902344"/><stop stop-opacity="1" stop-color="rgb(100%, 78.00293%, 4.823303%)" offset="0.90625"/><stop stop-opacity="1" stop-color="rgb(100%, 78.004456%, 4.61731%)" offset="0.910156"/><stop stop-opacity="1" stop-color="rgb(100%, 78.005981%, 4.412842%)" offset="0.914062"/><stop stop-opacity="1" stop-color="rgb(100%, 78.007507%, 4.206848%)" offset="0.917969"/><stop stop-opacity="1" stop-color="rgb(100%, 78.009033%, 4.00238%)" offset="0.921875"/><stop stop-opacity="1" stop-color="rgb(100%, 78.010559%, 3.796387%)" offset="0.925781"/><stop stop-opacity="1" stop-color="rgb(100%, 78.012085%, 3.590393%)" offset="0.929688"/><stop stop-opacity="1" stop-color="rgb(100%, 78.013611%, 3.385925%)" offset="0.933594"/><stop stop-opacity="1" stop-color="rgb(100%, 78.015137%, 3.179932%)" offset="0.9375"/><stop stop-opacity="1" stop-color="rgb(100%, 78.016663%, 2.975464%)" offset="0.941406"/><stop stop-opacity="1" stop-color="rgb(100%, 78.018188%, 2.76947%)" offset="0.945312"/><stop stop-opacity="1" stop-color="rgb(100%, 78.019714%, 2.565002%)" offset="0.949219"/><stop stop-opacity="1" stop-color="rgb(100%, 78.02124%, 2.359009%)" offset="0.953125"/><stop stop-opacity="1" stop-color="rgb(100%, 78.022766%, 2.154541%)" offset="0.957031"/><stop stop-opacity="1" stop-color="rgb(100%, 78.024292%, 1.948547%)" offset="0.960938"/><stop stop-opacity="1" stop-color="rgb(100%, 78.025818%, 1.74408%)" offset="0.964844"/><stop stop-opacity="1" stop-color="rgb(100%, 78.027344%, 1.538086%)" offset="0.96875"/><stop stop-opacity="1" stop-color="rgb(100%, 78.02887%, 1.333618%)" offset="0.972656"/><stop stop-opacity="1" stop-color="rgb(100%, 78.030396%, 1.127625%)" offset="0.976562"/><stop stop-opacity="1" stop-color="rgb(100%, 78.031921%, 0.923157%)" offset="0.980469"/><stop stop-opacity="1" stop-color="rgb(100%, 78.033447%, 0.717163%)" offset="0.984375"/><stop stop-opacity="1" stop-color="rgb(100%, 78.034973%, 0.512695%)" offset="0.988281"/><stop stop-opacity="1" stop-color="rgb(100%, 78.036499%, 0.306702%)" offset="0.992188"/><stop stop-opacity="1" stop-color="rgb(100%, 78.038025%, 0.102234%)" offset="0.996094"/><stop stop-opacity="1" stop-color="rgb(100%, 78.039551%, 0%)" offset="1"/></radialGradient><clipPath id="5f11375768"><rect x="0" width="301" y="0" height="301"/></clipPath><clipPath id="a45e2f24e4"><path d="M 101 154 L 170 154 L 170 213 L 101 213 Z M 101 154 " clip-rule="nonzero"/></clipPath><clipPath id="161111a6fa"><path d="M 72.589844 125.21875 L 168.992188 106.242188 L 187.386719 199.695312 L 90.988281 218.675781 Z M 72.589844 125.21875 " clip-rule="nonzero"/></clipPath><clipPath id="1df148a8c4"><path d="M 72.589844 125.21875 L 168.992188 106.242188 L 187.386719 199.695312 L 90.988281 218.675781 Z M 72.589844 125.21875 " clip-rule="nonzero"/></clipPath><clipPath id="dc83859361"><path d="M 72.589844 125.21875 L 168.992188 106.242188 L 187.386719 199.695312 L 90.988281 218.675781 Z M 72.589844 125.21875 " clip-rule="nonzero"/></clipPath><clipPath id="fc2da7804f"><path d="M 96 118 L 123 118 L 123 153 L 96 153 Z M 96 118 " clip-rule="nonzero"/></clipPath><clipPath id="1da2e6f967"><path d="M 72.589844 125.21875 L 168.992188 106.242188 L 187.386719 199.695312 L 90.988281 218.675781 Z M 72.589844 125.21875 " clip-rule="nonzero"/></clipPath><clipPath id="2bdcfcd40f"><path d="M 72.589844 125.21875 L 168.992188 106.242188 L 187.386719 199.695312 L 90.988281 218.675781 Z M 72.589844 125.21875 " clip-rule="nonzero"/></clipPath><clipPath id="27935ba153"><path d="M 72.589844 125.21875 L 168.992188 106.242188 L 187.386719 199.695312 L 90.988281 218.675781 Z M 72.589844 125.21875 " clip-rule="nonzero"/></clipPath><clipPath id="74798b8689"><path d="M 127 112 L 152 112 L 152 148 L 127 148 Z M 127 112 " clip-rule="nonzero"/></clipPath><clipPath id="8a1b2eb4a3"><path d="M 72.589844 125.21875 L 168.992188 106.242188 L 187.386719 199.695312 L 90.988281 218.675781 Z M 72.589844 125.21875 " clip-rule="nonzero"/></clipPath><clipPath id="c37f2d2585"><path d="M 72.589844 125.21875 L 168.992188 106.242188 L 187.386719 199.695312 L 90.988281 218.675781 Z M 72.589844 125.21875 " clip-rule="nonzero"/></clipPath><clipPath id="704b819aff"><path d="M 72.589844 125.21875 L 168.992188 106.242188 L 187.386719 199.695312 L 90.988281 218.675781 Z M 72.589844 125.21875 " clip-rule="nonzero"/></clipPath><clipPath id="9bce9be4e3"><path d="M 153 131 L 177 131 L 177 162 L 153 162 Z M 153 131 " clip-rule="nonzero"/></clipPath><clipPath id="f0951f28d7"><path d="M 72.589844 125.21875 L 168.992188 106.242188 L 187.386719 199.695312 L 90.988281 218.675781 Z M 72.589844 125.21875 " clip-rule="nonzero"/></clipPath><clipPath id="c8fb9948a2"><path d="M 72.589844 125.21875 L 168.992188 106.242188 L 187.386719 199.695312 L 90.988281 218.675781 Z M 72.589844 125.21875 " clip-rule="nonzero"/></clipPath><clipPath id="af8027e2c3"><path d="M 72.589844 125.21875 L 168.992188 106.242188 L 187.386719 199.695312 L 90.988281 218.675781 Z M 72.589844 125.21875 " clip-rule="nonzero"/></clipPath><clipPath id="d193730abf"><path d="M 79 147 L 105 147 L 105 175 L 79 175 Z M 79 147 " clip-rule="nonzero"/></clipPath><clipPath id="0fee61e734"><path d="M 72.589844 125.21875 L 168.992188 106.242188 L 187.386719 199.695312 L 90.988281 218.675781 Z M 72.589844 125.21875 " clip-rule="nonzero"/></clipPath><clipPath id="4f6f812197"><path d="M 72.589844 125.21875 L 168.992188 106.242188 L 187.386719 199.695312 L 90.988281 218.675781 Z M 72.589844 125.21875 " clip-rule="nonzero"/></clipPath><clipPath id="3acb75fb76"><path d="M 72.589844 125.21875 L 168.992188 106.242188 L 187.386719 199.695312 L 90.988281 218.675781 Z M 72.589844 125.21875 " clip-rule="nonzero"/></clipPath><clipPath id="a784472545"><path d="M 200 207 L 274 207 L 274 269 L 200 269 Z M 200 207 " clip-rule="nonzero"/></clipPath><clipPath id="22868cc978"><path d="M 193.328125 160.917969 L 297 171.875 L 286.4375 271.820312 L 182.765625 260.859375 Z M 193.328125 160.917969 " clip-rule="nonzero"/></clipPath><clipPath id="6e2bbf53e6"><path d="M 193.328125 160.917969 L 297 171.875 L 286.4375 271.820312 L 182.765625 260.859375 Z M 193.328125 160.917969 " clip-rule="nonzero"/></clipPath><clipPath id="8ce98fbef8"><path d="M 193.328125 160.917969 L 297 171.875 L 286.4375 271.820312 L 182.765625 260.859375 Z M 193.328125 160.917969 " clip-rule="nonzero"/></clipPath><clipPath id="953dcb4f47"><path d="M 214 164 L 241 164 L 241 202 L 214 202 Z M 214 164 " clip-rule="nonzero"/></clipPath><clipPath id="90e8dd42ae"><path d="M 193.328125 160.917969 L 297 171.875 L 286.4375 271.820312 L 182.765625 260.859375 Z M 193.328125 160.917969 " clip-rule="nonzero"/></clipPath><clipPath id="57e1ffc72b"><path d="M 193.328125 160.917969 L 297 171.875 L 286.4375 271.820312 L 182.765625 260.859375 Z M 193.328125 160.917969 " clip-rule="nonzero"/></clipPath><clipPath id="702d0d07d5"><path d="M 193.328125 160.917969 L 297 171.875 L 286.4375 271.820312 L 182.765625 260.859375 Z M 193.328125 160.917969 " clip-rule="nonzero"/></clipPath><clipPath id="ac74d1d008"><path d="M 246 168 L 274 168 L 274 205 L 246 205 Z M 246 168 " clip-rule="nonzero"/></clipPath><clipPath id="9170cdf8bc"><path d="M 193.328125 160.917969 L 297 171.875 L 286.4375 271.820312 L 182.765625 260.859375 Z M 193.328125 160.917969 " clip-rule="nonzero"/></clipPath><clipPath id="b90d4233c1"><path d="M 193.328125 160.917969 L 297 171.875 L 286.4375 271.820312 L 182.765625 260.859375 Z M 193.328125 160.917969 " clip-rule="nonzero"/></clipPath><clipPath id="88e6796385"><path d="M 193.328125 160.917969 L 297 171.875 L 286.4375 271.820312 L 182.765625 260.859375 Z M 193.328125 160.917969 " clip-rule="nonzero"/></clipPath><clipPath id="3244351da3"><path d="M 267 196 L 294 196 L 294 226 L 267 226 Z M 267 196 " clip-rule="nonzero"/></clipPath><clipPath id="fcd40c01c0"><path d="M 193.328125 160.917969 L 297 171.875 L 286.4375 271.820312 L 182.765625 260.859375 Z M 193.328125 160.917969 " clip-rule="nonzero"/></clipPath><clipPath id="d4b7617f56"><path d="M 193.328125 160.917969 L 297 171.875 L 286.4375 271.820312 L 182.765625 260.859375 Z M 193.328125 160.917969 " clip-rule="nonzero"/></clipPath><clipPath id="43ff01abf6"><path d="M 193.328125 160.917969 L 297 171.875 L 286.4375 271.820312 L 182.765625 260.859375 Z M 193.328125 160.917969 " clip-rule="nonzero"/></clipPath><clipPath id="993c2b5515"><path d="M 189 187 L 215 187 L 215 219 L 189 219 Z M 189 187 " clip-rule="nonzero"/></clipPath><clipPath id="c818f24929"><path d="M 193.328125 160.917969 L 297 171.875 L 286.4375 271.820312 L 182.765625 260.859375 Z M 193.328125 160.917969 " clip-rule="nonzero"/></clipPath><clipPath id="ea8caa55fa"><path d="M 193.328125 160.917969 L 297 171.875 L 286.4375 271.820312 L 182.765625 260.859375 Z M 193.328125 160.917969 " clip-rule="nonzero"/></clipPath><clipPath id="c3f80580b6"><path d="M 193.328125 160.917969 L 297 171.875 L 286.4375 271.820312 L 182.765625 260.859375 Z M 193.328125 160.917969 " clip-rule="nonzero"/></clipPath></defs><g clip-path="url(#abf4ac4e1f)"><g clip-path="url(#5d092c4a4e)"><g transform="matrix(1, 0, 0, 1, 37, 37)"><g clip-path="url(#5f11375768)"><g clip-path="url(#d3e695f23d)"><g clip-path="url(#a061b68e3c)"><path fill="url(#21fca91739)" d="M 0.5 0.5 L 0.5 300.5 L 300.5 300.5 L 300.5 0.5 Z M 0.5 0.5 " fill-rule="nonzero"/></g></g></g></g><path stroke-linecap="butt" transform="matrix(0.75, 0, 0, 0.75, 37.500002, 37.499998)" fill="none" stroke-linejoin="miter" d="M 200.00001 0.00000328333 C 89.54167 0.00000328333 -0.00000271667 89.541676 -0.00000271667 200.000016 C -0.00000271667 310.458357 89.54167 400.00003 200.00001 400.00003 C 310.458351 400.00003 400.000024 310.458357 400.000024 200.000016 C 400.000024 89.541676 310.458351 0.00000328333 200.00001 0.00000328333 Z M 200.00001 0.00000328333 " stroke="#f2f3f0" stroke-width="10" stroke-opacity="1" stroke-miterlimit="4"/></g></g><g clip-path="url(#a45e2f24e4)"><g clip-path="url(#161111a6fa)"><g clip-path="url(#1df148a8c4)"><g clip-path="url(#dc83859361)"><path fill="#000000" d="M 152.4375 206.554688 C 151.0625 206.601562 149.09375 206.945312 147.195312 206.707031 C 141.320312 205.972656 136.074219 207.5 130.792969 210.046875 C 119.289062 215.597656 106.980469 210.050781 102.554688 198.257812 C 101.996094 196.839844 101.617188 195.378906 101.414062 193.867188 C 101.210938 192.359375 101.191406 190.847656 101.351562 189.332031 C 101.515625 187.816406 101.859375 186.34375 102.378906 184.914062 C 102.898438 183.484375 103.582031 182.136719 104.429688 180.871094 C 105.765625 178.792969 107.324219 176.863281 108.648438 174.785156 C 109.628906 173.335938 110.425781 171.796875 111.039062 170.160156 C 116.082031 153.132812 140.140625 148.4375 151.375 162.125 C 152.863281 163.691406 154.53125 165.03125 156.386719 166.140625 C 159.902344 168.460938 163.554688 170.578125 165.953125 174.21875 C 172.855469 184.671875 169.808594 199.558594 157.175781 205.253906 C 155.847656 205.84375 154.386719 206.03125 152.4375 206.554688 Z M 152.4375 206.554688 " fill-opacity="1" fill-rule="nonzero"/></g></g></g></g><g clip-path="url(#fc2da7804f)"><g clip-path="url(#1da2e6f967)"><g clip-path="url(#2bdcfcd40f)"><g clip-path="url(#27935ba153)"><path fill="#000000" d="M 96.773438 134.835938 C 94.511719 125.792969 100.722656 114.75 111.679688 120.382812 C 120.8125 124.988281 124.367188 137.425781 120.925781 146.738281 C 118.589844 152.769531 112.734375 154.652344 107.164062 151.339844 C 102.472656 148.574219 98.148438 143.074219 96.773438 134.835938 Z M 96.773438 134.835938 " fill-opacity="1" fill-rule="nonzero"/></g></g></g></g><g clip-path="url(#74798b8689)"><g clip-path="url(#8a1b2eb4a3)"><g clip-path="url(#c37f2d2585)"><g clip-path="url(#704b819aff)"><path fill="#000000" d="M 128.179688 134.128906 C 126.78125 127.664062 127.691406 122.054688 131.410156 117.105469 C 136.578125 110.21875 143.285156 111.1875 147.863281 116.839844 C 154.113281 124.84375 152.917969 139.609375 144.476562 145.929688 C 140.925781 148.519531 137.46875 148.265625 134.140625 145.402344 C 131.039062 142.742188 129.121094 139.011719 128.179688 134.128906 Z M 128.179688 134.128906 " fill-opacity="1" fill-rule="nonzero"/></g></g></g></g><g clip-path="url(#9bce9be4e3)"><g clip-path="url(#f0951f28d7)"><g clip-path="url(#c8fb9948a2)"><g clip-path="url(#af8027e2c3)"><path fill="#000000" d="M 153.714844 151.640625 C 150.046875 135.3125 171.09375 122.679688 175.40625 138.824219 C 176 141.230469 176.1875 143.664062 175.96875 146.132812 C 175.75 148.601562 175.136719 150.964844 174.128906 153.226562 C 173.421875 154.90625 172.417969 156.382812 171.113281 157.652344 C 169.808594 158.925781 168.304688 159.890625 166.605469 160.550781 C 159.996094 163.34375 154.542969 158.285156 153.714844 151.640625 Z M 153.714844 151.640625 " fill-opacity="1" fill-rule="nonzero"/></g></g></g></g><g clip-path="url(#d193730abf)"><g clip-path="url(#0fee61e734)"><g clip-path="url(#4f6f812197)"><g clip-path="url(#3acb75fb76)"><path fill="#000000" d="M 104.34375 161.75 C 105 164.089844 104.902344 166.398438 104.050781 168.671875 C 101.390625 176.8125 92.007812 175.121094 86.679688 170.710938 C 81.53125 166.769531 78.707031 161.378906 79.027344 155.0625 C 79.316406 149.148438 82.855469 146.746094 88.894531 147.101562 C 96.8125 147.589844 102.679688 153.292969 104.34375 161.75 Z M 104.34375 161.75 " fill-opacity="1" fill-rule="nonzero"/></g></g></g></g><g clip-path="url(#a784472545)"><g clip-path="url(#22868cc978)"><g clip-path="url(#6e2bbf53e6)"><g clip-path="url(#8ce98fbef8)"><path fill="#000000" d="M 248.859375 267.8125 C 247.449219 267.433594 245.347656 267.167969 243.496094 266.335938 C 237.769531 263.761719 231.96875 263.660156 225.820312 264.578125 C 212.421875 266.585938 201.675781 257.152344 200.878906 243.886719 C 200.753906 242.285156 200.824219 240.691406 201.089844 239.105469 C 201.355469 237.523438 201.808594 235.992188 202.449219 234.515625 C 203.085938 233.042969 203.894531 231.664062 204.867188 230.382812 C 205.84375 229.105469 206.957031 227.960938 208.210938 226.949219 C 210.214844 225.269531 212.402344 223.816406 214.390625 222.128906 C 215.835938 220.976562 217.125 219.671875 218.261719 218.214844 C 228.695312 202.628906 254.558594 205.410156 261.667969 222.707031 C 262.6875 224.75 263.964844 226.621094 265.492188 228.320312 C 268.335938 231.753906 271.378906 235.03125 272.671875 239.445312 C 276.398438 252.132812 268.65625 266.1875 254.070312 267.984375 C 252.539062 268.164062 251 267.894531 248.859375 267.8125 Z M 248.859375 267.8125 " fill-opacity="1" fill-rule="nonzero"/></g></g></g></g><g clip-path="url(#953dcb4f47)"><g clip-path="url(#90e8dd42ae)"><g clip-path="url(#57e1ffc72b)"><g clip-path="url(#702d0d07d5)"><path fill="#000000" d="M 214.839844 178.164062 C 215.375 168.347656 225.121094 159.15625 234.472656 168.253906 C 242.292969 175.746094 242.011719 189.386719 235.605469 197.699219 C 231.355469 203.046875 224.828125 203.117188 220.214844 198.039062 C 216.324219 193.789062 213.660156 186.894531 214.839844 178.164062 Z M 214.839844 178.164062 " fill-opacity="1" fill-rule="nonzero"/></g></g></g></g><g clip-path="url(#ac74d1d008)"><g clip-path="url(#9170cdf8bc)"><g clip-path="url(#b90d4233c1)"><g clip-path="url(#88e6796385)"><path fill="#000000" d="M 246.902344 187.253906 C 247.507812 180.304688 250.183594 174.933594 255.5 171.105469 C 262.894531 165.777344 269.394531 168.847656 272.265625 175.972656 C 276.097656 185.988281 270.273438 200.496094 259.738281 204.230469 C 255.328125 205.734375 251.902344 204.398438 249.421875 200.476562 C 247.109375 196.828125 246.332031 192.46875 246.902344 187.253906 Z M 246.902344 187.253906 " fill-opacity="1" fill-rule="nonzero"/></g></g></g></g><g clip-path="url(#3244351da3)"><g clip-path="url(#fcd40c01c0)"><g clip-path="url(#d4b7617f56)"><g clip-path="url(#43ff01abf6)"><path fill="#000000" d="M 267.316406 212.871094 C 268.703125 195.273438 293.992188 189.109375 293.316406 206.722656 C 293.167969 209.332031 292.597656 211.847656 291.601562 214.265625 C 290.609375 216.683594 289.25 218.875 287.519531 220.839844 C 286.28125 222.3125 284.800781 223.488281 283.078125 224.359375 C 281.359375 225.234375 279.535156 225.738281 277.605469 225.875 C 270.03125 226.628906 266.082031 219.828125 267.316406 212.871094 Z M 267.316406 212.871094 " fill-opacity="1" fill-rule="nonzero"/></g></g></g></g><g clip-path="url(#993c2b5515)"><g clip-path="url(#c818f24929)"><g clip-path="url(#ea8caa55fa)"><g clip-path="url(#c3f80580b6)"><path fill="#000000" d="M 214.101562 207.652344 C 214.070312 208.902344 213.84375 210.117188 213.421875 211.292969 C 213.003906 212.46875 212.410156 213.550781 211.640625 214.539062 C 206.398438 221.910156 197.414062 217.277344 193.390625 211.171875 C 189.40625 205.59375 188.226562 199.277344 190.523438 193.011719 C 192.667969 187.144531 197.007812 185.824219 203.019531 188.066406 C 210.894531 191.03125 215.058594 198.609375 214.101562 207.652344 Z M 214.101562 207.652344 " fill-opacity="1" fill-rule="nonzero"/></g></g></g></g></svg>